<svg id="Layer_1" data-name="Layer 1" xmlns="http://www.w3.org/2000/svg" viewBox="0 0 168.17 94.59"><defs><style>.cls-1{fill:#2b2d33;}.cls-2{fill:#42454c;}.cls-3{fill:#474a52;}.cls-4{fill:#c4c4c3;}.cls-5{fill:#6b7077;}.cls-6{fill:gray;}.cls-7{fill:#202226;}.cls-8{fill:#5d626e;}.cls-9{fill:#898b92;}.cls-10{fill:#01f8da;}.cls-11{fill:#e2e2e0;}.cls-12{fill:none;stroke:#c4c4c3;stroke-miterlimit:10;stroke-width:0.11px;}.cls-13{opacity:0.42;}.cls-14{fill:#49ea45;}.cls-15{fill:#00e2ff;}.cls-16{fill:#ec4444;}.cls-17{fill:#e8b71e;}</style></defs><title>GK</title><path class="cls-1" d="M0,93.22a1.48,1.48,0,0,0,1.57,1.37h165a1.49,1.49,0,0,0,1.58-1.37V7.94H0Z"/><path class="cls-2" d="M166.6,0H1.57A1.57,1.57,0,0,0,0,1.57V7.94H168.17V1.57A1.57,1.57,0,0,0,166.6,0Z"/><rect class="cls-3" x="4.04" y="19.28" width="50.61" height="53.41" rx="1.85" ry="1.85"/><rect class="cls-3" x="58.73" y="19.28" width="50.57" height="69.33" rx="1.85" ry="1.85"/><rect class="cls-3" x="113.49" y="19.28" width="50.52" height="52.35" rx="1.85" ry="1.85"/><circle class="cls-4" cx="104.32" cy="13.67" r="1.81"/><circle class="cls-4" cx="109.25" cy="13.67" r="1.81"/><circle class="cls-4" cx="114.25" cy="13.67" r="1.81"/><rect class="cls-4" x="60.86" y="21.46" width="25.14" height="1.32" rx="0.66" ry="0.66"/><rect class="cls-5" x="60.86" y="23.98" width="7.99" height="0.85" rx="0.43" ry="0.43"/><rect class="cls-5" x="60.86" y="84.96" width="7.99" height="0.87" rx="0.44" ry="0.44"/><path class="cls-6" d="M106.08,21.78a.34.34,0,1,1-.33-.33A.34.34,0,0,1,106.08,21.78Z"/><path class="cls-6" d="M106.08,22.74a.34.34,0,0,1-.67,0,.34.34,0,1,1,.67,0Z"/><path class="cls-6" d="M106.08,23.79a.34.34,0,1,1-.33-.33A.34.34,0,0,1,106.08,23.79Z"/><path class="cls-6" d="M102.59,24.13a.15.15,0,0,1-.15-.15v-1h-1a.15.15,0,0,1-.15-.15.15.15,0,0,1,.15-.15h1v-1a.15.15,0,0,1,.3,0v1h1a.15.15,0,0,1,.15.15.15.15,0,0,1-.15.15h-1v1A.15.15,0,0,1,102.59,24.13Z"/><rect class="cls-7" x="25.93" y="11.55" width="75.32" height="4.24" rx="0.74" ry="0.74"/><rect class="cls-4" x="76.91" y="3.51" width="19.07" height="1.17" rx="0.53" ry="0.53"/><rect class="cls-4" x="7.42" y="3.66" width="11.45" height="0.88" rx="0.35" ry="0.35"/><rect class="cls-5" x="27.35" y="13.23" width="13.23" height="0.88" rx="0.44" ry="0.44"/><path class="cls-4" d="M161.79,2.07a2,2,0,1,0,2,2A2,2,0,0,0,161.79,2.07Z"/><rect class="cls-8" x="60.86" y="29.04" width="46.31" height="14.26" rx="1.1" ry="1.1"/><rect class="cls-4" x="62.97" y="31.17" width="17.53" height="1.07" rx="0.54" ry="0.54"/><rect class="cls-4" x="67.81" y="40.22" width="18.09" height="0.68"/><rect class="cls-4" x="62.97" y="39.98" width="1.26" height="1.17"/><rect class="cls-4" x="65.39" y="39.98" width="1.26" height="1.17"/><rect class="cls-9" x="68.94" y="79.7" width="18.09" height="0.68"/><rect class="cls-9" x="62.97" y="79.25" width="1.7" height="1.57"/><rect class="cls-9" x="65.37" y="79.25" width="1.7" height="1.57"/><rect class="cls-8" x="60.86" y="57.94" width="46.31" height="13.64" rx="1.08" ry="1.08"/><rect class="cls-4" x="62.97" y="60.01" width="17.53" height="1.07" rx="0.54" ry="0.54"/><rect class="cls-8" x="60.86" y="73.68" width="46.31" height="8.58" rx="0.85" ry="0.85"/><rect class="cls-4" x="62.97" y="75.82" width="9.78" height="1.07" rx="0.4" ry="0.4"/><rect class="cls-8" x="60.86" y="45.41" width="46.31" height="10.43" rx="0.94" ry="0.94"/><rect class="cls-4" x="62.97" y="47.54" width="27.36" height="1.07" rx="0.54" ry="0.54"/><rect class="cls-4" x="155.01" y="2.97" width="2.26" height="2.26" rx="0.41" ry="0.41"/><circle class="cls-10" cx="73.64" cy="4.1" r="1.52"/><rect class="cls-4" x="67.81" y="68.55" width="18.09" height="0.68"/><rect class="cls-4" x="62.97" y="68.31" width="1.26" height="1.17"/><rect class="cls-4" x="65.39" y="68.31" width="1.26" height="1.17"/><rect class="cls-4" x="67.81" y="79.23" width="18.09" height="0.68"/><rect class="cls-4" x="62.97" y="78.99" width="1.26" height="1.17"/><rect class="cls-4" x="65.39" y="78.99" width="1.26" height="1.17"/><rect class="cls-4" x="115.61" y="21.46" width="12.86" height="1.32" rx="0.63" ry="0.63"/><rect class="cls-5" x="115.61" y="23.98" width="7.99" height="0.85" rx="0.43" ry="0.43"/><rect class="cls-5" x="115.61" y="68.64" width="7.99" height="0.87" rx="0.44" ry="0.44"/><circle class="cls-6" cx="160.5" cy="21.78" r="0.34"/><circle class="cls-6" cx="160.5" cy="22.74" r="0.34"/><circle class="cls-6" cx="160.5" cy="23.79" r="0.34"/><path class="cls-6" d="M157.34,24.13a.15.15,0,0,1-.15-.15v-1h-1a.15.15,0,0,1-.15-.15.15.15,0,0,1,.15-.15h1v-1a.15.15,0,0,1,.3,0v1h1a.15.15,0,0,1,.15.15.15.15,0,0,1-.15.15h-1v1A.15.15,0,0,1,157.34,24.13Z"/><rect class="cls-9" x="123.69" y="63.33" width="18.09" height="0.68"/><rect class="cls-9" x="117.72" y="62.88" width="1.7" height="1.57"/><rect class="cls-9" x="120.12" y="62.88" width="1.7" height="1.57"/><rect class="cls-8" x="115.61" y="41.57" width="46.31" height="13.64" rx="1.08" ry="1.08"/><rect class="cls-4" x="117.72" y="43.64" width="26.95" height="1.07" rx="0.54" ry="0.54"/><rect class="cls-8" x="115.61" y="57.31" width="46.31" height="8.58" rx="0.85" ry="0.85"/><rect class="cls-4" x="117.72" y="59.45" width="15.9" height="1.07" rx="0.51" ry="0.51"/><rect class="cls-8" x="115.61" y="29.04" width="46.31" height="10.43" rx="0.94" ry="0.94"/><rect class="cls-4" x="117.72" y="31.17" width="17.53" height="1.07" rx="0.54" ry="0.54"/><rect class="cls-2" x="122.56" y="52.18" width="18.09" height="0.68"/><rect class="cls-4" x="117.72" y="51.94" width="1.26" height="1.17"/><rect class="cls-4" x="120.14" y="51.94" width="1.26" height="1.17"/><rect class="cls-2" x="122.56" y="62.86" width="18.09" height="0.68"/><rect class="cls-4" x="117.72" y="62.62" width="1.26" height="1.17"/><rect class="cls-4" x="120.14" y="62.62" width="1.26" height="1.17"/><rect class="cls-4" x="6.16" y="21.46" width="14.33" height="1.32" rx="0.66" ry="0.66"/><rect class="cls-4" x="6.16" y="13.01" width="17.77" height="1.32" rx="0.66" ry="0.66"/><rect class="cls-5" x="6.16" y="23.98" width="7.99" height="0.85" rx="0.43" ry="0.43"/><rect class="cls-5" x="6.16" y="69.04" width="7.99" height="0.87" rx="0.44" ry="0.44"/><circle class="cls-6" cx="51.05" cy="21.78" r="0.34"/><circle class="cls-6" cx="51.05" cy="22.74" r="0.34"/><circle class="cls-6" cx="51.05" cy="23.79" r="0.34"/><path class="cls-6" d="M47.89,24.13a.15.15,0,0,1-.15-.15v-1h-1a.15.15,0,0,1-.15-.15.15.15,0,0,1,.15-.15h1v-1a.15.15,0,0,1,.3,0v1h1a.15.15,0,0,1,.15.15.15.15,0,0,1-.15.15H48v1A.15.15,0,0,1,47.89,24.13Z"/><rect class="cls-8" x="6.16" y="29.04" width="46.31" height="14.26" rx="1.1" ry="1.1"/><rect class="cls-4" x="8.27" y="31.25" width="12.91" height="1.07" rx="0.46" ry="0.46"/><rect class="cls-4" x="13.11" y="40.3" width="18.09" height="0.68"/><rect class="cls-4" x="8.27" y="40.05" width="1.26" height="1.17"/><rect class="cls-4" x="10.69" y="40.05" width="1.26" height="1.17"/><rect class="cls-8" x="6.16" y="45.41" width="46.31" height="13.64" rx="1.08" ry="1.08"/><rect class="cls-4" x="8.27" y="47.48" width="21.05" height="1.07" rx="0.54" ry="0.54"/><rect class="cls-8" x="6.16" y="61.14" width="46.31" height="5.2" rx="0.66" ry="0.66"/><rect class="cls-4" x="8.27" y="63.25" width="17.53" height="1.07" rx="0.54" ry="0.54"/><rect class="cls-4" x="13.11" y="56.01" width="18.09" height="0.68"/><rect class="cls-4" x="8.27" y="55.77" width="1.26" height="1.17"/><rect class="cls-4" x="10.69" y="55.77" width="1.26" height="1.17"/><rect class="cls-4" x="149.43" y="2.97" width="2.26" height="2.26" rx="0.41" ry="0.41"/><rect class="cls-4" x="4.25" y="2.97" width="2.26" height="2.26" rx="0.41" ry="0.41"/><path class="cls-4" d="M48.51,65.32a1.61,1.61,0,1,1,1.61-1.61A1.61,1.61,0,0,1,48.51,65.32Z"/><path class="cls-8" d="M48.51,62.19A1.52,1.52,0,1,1,47,63.71a1.53,1.53,0,0,1,1.52-1.52m0-.16a1.68,1.68,0,1,0,1.69,1.68A1.68,1.68,0,0,0,48.51,62Z"/><path class="cls-4" d="M48.51,42.24a1.61,1.61,0,1,1,1.61-1.6A1.6,1.6,0,0,1,48.51,42.24Z"/><path class="cls-8" d="M48.51,39.11a1.53,1.53,0,1,1,0,3,1.53,1.53,0,0,1,0-3m0-.16a1.69,1.69,0,1,0,1.69,1.69A1.69,1.69,0,0,0,48.51,39Z"/><path class="cls-4" d="M103.34,42.24a1.61,1.61,0,1,1,1.6-1.6A1.61,1.61,0,0,1,103.34,42.24Z"/><path class="cls-8" d="M103.34,39.11a1.53,1.53,0,1,1-1.52,1.53,1.53,1.53,0,0,1,1.52-1.53m0-.16A1.69,1.69,0,1,0,105,40.64,1.69,1.69,0,0,0,103.34,39Z"/><path class="cls-11" d="M101.74,54.74a1.61,1.61,0,1,1,1.61-1.61A1.61,1.61,0,0,1,101.74,54.74Z"/><path class="cls-8" d="M101.74,51.61a1.53,1.53,0,1,1-1.52,1.52,1.53,1.53,0,0,1,1.52-1.52m0-.16a1.69,1.69,0,0,0,0,3.37,1.69,1.69,0,1,0,0-3.37Z"/><path class="cls-4" d="M103.27,54.74a1.61,1.61,0,1,1,1.6-1.61A1.61,1.61,0,0,1,103.27,54.74Z"/><path class="cls-8" d="M103.27,51.61a1.53,1.53,0,1,1-1.53,1.52,1.52,1.52,0,0,1,1.53-1.52m0-.16A1.69,1.69,0,1,0,105,53.13a1.69,1.69,0,0,0-1.68-1.68Z"/><path class="cls-2" d="M155,38.33a1.61,1.61,0,1,1,1.6-1.6A1.61,1.61,0,0,1,155,38.33Z"/><path class="cls-8" d="M155,35.2a1.53,1.53,0,1,1-1.53,1.53A1.52,1.52,0,0,1,155,35.2m0-.16a1.69,1.69,0,1,0,1.68,1.69A1.69,1.69,0,0,0,155,35Z"/><path class="cls-11" d="M156.51,38.33a1.61,1.61,0,1,1,1.61-1.6A1.6,1.6,0,0,1,156.51,38.33Z"/><path class="cls-8" d="M156.51,35.2A1.53,1.53,0,1,1,155,36.73a1.52,1.52,0,0,1,1.52-1.53m0-.16a1.69,1.69,0,1,0,1.69,1.69A1.69,1.69,0,0,0,156.51,35Z"/><path class="cls-4" d="M158,38.33a1.61,1.61,0,1,1,1.6-1.6A1.61,1.61,0,0,1,158,38.33Z"/><path class="cls-8" d="M158,35.2a1.53,1.53,0,1,1-1.53,1.53A1.52,1.52,0,0,1,158,35.2m0-.16a1.69,1.69,0,1,0,1.68,1.69A1.69,1.69,0,0,0,158,35Z"/><rect class="cls-2" x="67.81" y="40.22" width="10.62" height="0.68"/><rect class="cls-2" x="67.81" y="68.55" width="4.15" height="0.68"/><rect class="cls-2" x="67.81" y="79.23" width="14.48" height="0.68"/><path class="cls-4" d="M120.1,14.44a.7.7,0,0,0-.7-.71.71.71,0,0,0-.71.71.1.1,0,0,0,.07.09H120A.1.1,0,0,0,120.1,14.44Z"/><path class="cls-4" d="M119.4,13.57a.35.35,0,0,0,.35-.35.36.36,0,1,0-.71,0A.35.35,0,0,0,119.4,13.57Z"/><path class="cls-4" d="M118.39,13.44v.3a.12.12,0,0,1,0,.07h-.16a.08.08,0,0,1,0-.07v-.3h-.3s-.06,0-.07,0a.17.17,0,0,1,0-.08.19.19,0,0,1,0-.08.1.1,0,0,1,.07,0h.3v-.31a.06.06,0,0,1,0-.06l.08,0,.08,0a.08.08,0,0,1,0,.06v.31h.31l.06,0a.19.19,0,0,1,0,.08.17.17,0,0,1,0,.08.06.06,0,0,1-.06,0Z"/><path class="cls-12" d="M118.81,15.34a1.93,1.93,0,0,1-.47-.13l0-.08a2.23,2.23,0,0,0,.44.13Zm.49,0v-.08a1.73,1.73,0,0,0,.44-.14l0,.09A1.93,1.93,0,0,1,119.3,15.34Zm-1.37-.4a1.64,1.64,0,0,1-.32-.37l.07,0a2,2,0,0,0,.31.35Zm2.25,0-.06-.07a1.43,1.43,0,0,0,.3-.35l.08.05A1.89,1.89,0,0,1,120.18,14.94Zm-2.77-.81a1.59,1.59,0,0,1-.07-.48h.09a1.68,1.68,0,0,0,.06.45Zm3.29,0-.08,0a1.76,1.76,0,0,0,.06-.46h.09A1.61,1.61,0,0,1,120.7,14.13Zm-3.21-.94-.08,0a1.58,1.58,0,0,1,.2-.44l.07,0A1.59,1.59,0,0,0,117.49,13.19Zm3.12,0a1.33,1.33,0,0,0-.19-.42l.08,0a2.28,2.28,0,0,1,.2.45ZM118,12.42l-.06-.07a1.62,1.62,0,0,1,.41-.27l0,.08A1.42,1.42,0,0,0,118,12.42Zm2.13,0a2,2,0,0,0-.39-.25l0-.08a1.62,1.62,0,0,1,.41.27Zm-1.3-.38V12a1.55,1.55,0,0,1,.48,0V12A1.77,1.77,0,0,0,118.82,12Z"/><g class="cls-13"><rect class="cls-14" x="8.27" y="51.19" width="3.53" height="1.94" rx="0.25" ry="0.25"/><rect class="cls-15" x="15.29" y="51.19" width="4.51" height="1.94" rx="0.28" ry="0.28"/><rect class="cls-15" x="62.97" y="35.2" width="3.53" height="1.94" rx="0.25" ry="0.25"/><rect class="cls-14" x="119.83" y="34.88" width="2.9" height="1.94" rx="0.22" ry="0.22"/><rect class="cls-16" x="12.3" y="51.19" width="2.67" height="1.94" rx="0.22" ry="0.22"/><rect class="cls-16" x="62.62" y="63.79" width="3.53" height="1.94" rx="0.25" ry="0.25"/><rect class="cls-17" x="66.82" y="63.79" width="2.61" height="1.94" rx="0.21" ry="0.21"/><rect class="cls-16" x="117.37" y="47.35" width="3.53" height="1.94" rx="0.25" ry="0.25"/><rect class="cls-17" x="117.37" y="34.88" width="1.94" height="1.94" rx="0.18" ry="0.18"/><rect class="cls-17" x="8.27" y="35.2" width="3.53" height="1.94" rx="0.25" ry="0.25"/></g></svg>