<svg id="Layer_1" data-name="Layer 1" xmlns="http://www.w3.org/2000/svg" viewBox="0 0 162.75 94.69"><defs><style>.cls-1{fill:#1c1f23;}.cls-2{fill:#521e3d;}.cls-3{fill:#272b30;}.cls-4{fill:#33363f;}.cls-5{fill:#313541;}.cls-6{fill:#3e4453;}.cls-7{fill:#b6b7ba;}.cls-8{fill:#78797e;}.cls-9{fill:#159fc0;}.cls-10{fill:#173157;}.cls-11{fill:#4f254f;}.cls-12{fill:#0f69f7;}.cls-13{fill:#d80170;}.cls-14{fill:#c517b6;}.cls-15{fill:#243a44;}.cls-16{fill:#1c3146;}.cls-17{fill:#412638;}.cls-18{fill:#3f2a42;}.cls-19{fill:#195f71;}.cls-20{fill:#1f4652;}.cls-21,.cls-22,.cls-23{fill:none;stroke-miterlimit:10;stroke-width:0.38px;}.cls-21{stroke:#0f69f7;}.cls-22{stroke:#d80170;}.cls-23{stroke:#c517b6;}.cls-24{fill:#9b9e9e;}.cls-25{fill:#2e7ab8;}.cls-26{fill:#286060;}.cls-27{fill:#3e434e;}.cls-28{fill:#fe5e5b;}.cls-29{fill:#ffba3f;}.cls-30{fill:#37c749;}.cls-31{fill:#93a9ec;}.cls-32{fill:#de9b42;}.cls-33{fill:#4d88ff;}.cls-34{fill:#5cb85c;}.cls-35{fill:#384765;}.cls-36{fill:#fff;}</style></defs><title>GK</title><rect class="cls-1" x="26.34" y="9.85" width="98.84" height="81.64"/><path class="cls-2" d="M75.39,82v.29H48.5v1.5a.21.21,0,0,1-.21.21H34.21a.21.21,0,0,1-.21-.21v-3.3a.21.21,0,0,1,.21-.21H48.29a.21.21,0,0,1,.21.21V82Z"/><rect class="cls-3" y="9.24" width="30.88" height="82.25"/><path class="cls-2" d="M75.39,59.07v.29H43.22v1.51a.21.21,0,0,1-.22.21H34.21a.21.21,0,0,1-.21-.21v-3.3a.21.21,0,0,1,.21-.21H43a.21.21,0,0,1,.22.21v1.5Z"/><rect class="cls-4" x="125.18" y="9.85" width="37.57" height="81.64"/><rect class="cls-5" y="2.53" width="162.75" height="7.31"/><path class="cls-6" d="M161.76,0H1.7A1.7,1.7,0,0,0,0,1.7v1H162.75V1A1,1,0,0,0,161.76,0Z"/><path class="cls-5" d="M0,91.35H162.75a0,0,0,0,1,0,0V93.1a1.59,1.59,0,0,1-1.59,1.59H1.48A1.48,1.48,0,0,1,0,93.21V91.35A0,0,0,0,1,0,91.35Z"/><rect class="cls-3" x="126.24" y="33.75" width="35.35" height="55.08"/><polygon class="cls-6" points="5.43 3.16 7.63 6.5 5.43 9.85 16.39 9.85 18.74 6.5 16.44 3.16 5.43 3.16"/><polygon class="cls-6" points="17.07 3.16 19.26 6.5 17.07 9.85 33.27 9.85 35.61 6.5 33.31 3.16 17.07 3.16"/><rect class="cls-7" x="21.4" y="5.95" width="9.87" height="1.12" rx="0.56" ry="0.56"/><rect class="cls-7" x="109.68" y="5.95" width="4.61" height="1.12" rx="0.56" ry="0.56"/><rect class="cls-7" x="8.87" y="5.95" width="8.04" height="1.12" rx="0.56" ry="0.56"/><rect class="cls-7" x="57.37" y="5.63" width="1.8" height="1.74" rx="0.33" ry="0.33"/><rect class="cls-7" x="64.03" y="5.63" width="1.8" height="1.74" rx="0.33" ry="0.33"/><rect class="cls-7" x="70.33" y="5.63" width="1.8" height="1.74" rx="0.33" ry="0.33"/><rect class="cls-7" x="76.99" y="5.63" width="1.8" height="1.74" rx="0.33" ry="0.33"/><rect class="cls-7" x="83.61" y="5.63" width="1.8" height="1.74" rx="0.33" ry="0.33"/><rect class="cls-7" x="90.26" y="5.63" width="1.8" height="1.74" rx="0.33" ry="0.33"/><rect class="cls-7" x="96.92" y="5.63" width="1.8" height="1.74" rx="0.33" ry="0.33"/><rect class="cls-7" x="103.57" y="5.63" width="1.8" height="1.74" rx="0.33" ry="0.33"/><rect class="cls-7" x="158.23" y="5.64" width="1.8" height="1.74" rx="0.33" ry="0.33"/><rect class="cls-7" x="147.84" y="5.64" width="1.8" height="1.74" rx="0.33" ry="0.33"/><rect class="cls-7" x="2.44" y="5.52" width="1.96" height="1.96" rx="0.29" ry="0.29"/><rect class="cls-8" x="84.56" y="13.18" width="31.31" height="0.96" rx="0.48" ry="0.48"/><rect class="cls-7" x="77.98" y="0.98" width="9.4" height="0.73" rx="0.26" ry="0.26"/><rect class="cls-8" x="84.56" y="18.9" width="39.62" height="0.96" rx="0.48" ry="0.48"/><rect class="cls-8" x="84.56" y="24.54" width="36.09" height="0.96" rx="0.48" ry="0.48"/><rect class="cls-8" x="84.56" y="30.25" width="35.15" height="0.96" rx="0.48" ry="0.48"/><rect class="cls-8" x="84.56" y="36" width="36.09" height="0.96" rx="0.48" ry="0.48"/><rect class="cls-8" x="84.56" y="41.69" width="27.51" height="0.96" rx="0.48" ry="0.48"/><rect class="cls-8" x="84.56" y="47.37" width="36.09" height="0.96" rx="0.48" ry="0.48"/><rect class="cls-8" x="84.56" y="53.11" width="36.09" height="0.96" rx="0.48" ry="0.48"/><rect class="cls-8" x="84.56" y="58.79" width="35.11" height="0.96" rx="0.48" ry="0.48"/><rect class="cls-8" x="84.56" y="64.5" width="36.09" height="0.96" rx="0.48" ry="0.48"/><rect class="cls-8" x="84.56" y="70.21" width="33.2" height="0.96" rx="0.48" ry="0.48"/><rect class="cls-8" x="84.56" y="75.96" width="36.09" height="0.96" rx="0.48" ry="0.48"/><rect class="cls-8" x="84.56" y="81.61" width="39.45" height="0.96" rx="0.48" ry="0.48"/><rect class="cls-8" x="84.56" y="87.26" width="34.08" height="0.96" rx="0.48" ry="0.48"/><rect class="cls-8" x="130.93" y="22.14" width="13.12" height="0.83" rx="0.42" ry="0.42"/><path class="cls-9" d="M58.36,13.5v.29H50.21v1.56a.21.21,0,0,1-.21.21H34.18a.21.21,0,0,1-.21-.21v-3.3a.21.21,0,0,1,.21-.21H50a.21.21,0,0,1,.21.21V13.5Z"/><path class="cls-10" d="M64.19,24.9v.29H44.84V26.7a.22.22,0,0,1-.22.21H34.18A.21.21,0,0,1,34,26.7V23.4a.21.21,0,0,1,.21-.22H44.62a.22.22,0,0,1,.22.22v1.5Z"/><path class="cls-11" d="M69.73,36.28v.29H48.57v1.51a.22.22,0,0,1-.22.21H34.18a.21.21,0,0,1-.21-.21v-3.3a.21.21,0,0,1,.21-.22H48.35a.22.22,0,0,1,.22.22v1.5Z"/><rect class="cls-9" x="82.64" y="68.93" width="0.58" height="3.72"/><rect class="cls-12" x="82.64" y="74.58" width="0.58" height="3.72"/><rect class="cls-12" x="82.64" y="63.12" width="0.58" height="3.72"/><rect class="cls-13" x="82.64" y="57.41" width="0.58" height="3.72"/><rect class="cls-12" x="82.64" y="51.72" width="0.58" height="3.72"/><rect class="cls-9" x="82.64" y="46.01" width="0.58" height="3.72"/><rect class="cls-9" x="82.64" y="40.25" width="0.58" height="3.72"/><rect class="cls-14" x="82.64" y="34.56" width="0.58" height="3.72"/><rect class="cls-9" x="82.64" y="28.87" width="0.58" height="3.72"/><rect class="cls-12" x="82.64" y="23.18" width="0.58" height="3.72"/><rect class="cls-9" x="82.64" y="17.52" width="0.58" height="3.72"/><rect class="cls-9" x="82.64" y="11.8" width="0.58" height="3.72"/><rect class="cls-15" x="60.1" y="68.93" width="22.56" height="3.72"/><rect class="cls-9" x="82.64" y="85.88" width="0.58" height="3.72"/><rect class="cls-15" x="60.1" y="85.88" width="22.56" height="3.72"/><rect class="cls-16" x="65.77" y="74.58" width="16.89" height="3.72"/><rect class="cls-16" x="59.82" y="85.88" width="22.84" height="3.72"/><rect class="cls-16" x="65.77" y="63.12" width="16.89" height="3.72"/><rect class="cls-17" x="77.18" y="57.41" width="5.47" height="3.72"/><rect class="cls-16" x="65.77" y="51.72" width="16.89" height="3.72"/><rect class="cls-15" x="60.1" y="46.01" width="22.56" height="3.72"/><rect class="cls-15" x="60.1" y="40.25" width="22.56" height="3.72"/><rect class="cls-18" x="71.4" y="34.56" width="11.25" height="3.72"/><rect class="cls-15" x="60.1" y="28.87" width="22.56" height="3.72"/><rect class="cls-16" x="65.84" y="23.18" width="16.82" height="3.72"/><rect class="cls-15" x="60.1" y="17.52" width="22.56" height="3.72"/><rect class="cls-19" x="60.1" y="11.8" width="22.56" height="3.72"/><path class="cls-20" d="M58.36,70.59v.29H44.84v1.56a.21.21,0,0,1-.21.21H34.18a.21.21,0,0,1-.21-.21v-3.3a.21.21,0,0,1,.21-.21H44.63a.21.21,0,0,1,.21.21v1.45Z"/><rect class="cls-9" x="59.82" y="15.4" width="0.37" height="75.94"/><path class="cls-1" d="M60,21.12a1.74,1.74,0,1,1,1.74-1.74A1.74,1.74,0,0,1,60,21.12Z"/><path class="cls-9" d="M60,17.83a1.55,1.55,0,1,1-1.55,1.55A1.56,1.56,0,0,1,60,17.83m0-.37a1.93,1.93,0,1,0,1.93,1.92A1.92,1.92,0,0,0,60,17.46Z"/><circle class="cls-1" cx="60" cy="13.66" r="1.74"/><path class="cls-9" d="M60,12.11a1.56,1.56,0,1,1-1.55,1.55A1.56,1.56,0,0,1,60,12.11m0-.37a1.93,1.93,0,1,0,1.93,1.92A1.92,1.92,0,0,0,60,11.74Z"/><circle class="cls-1" cx="65.71" cy="25.1" r="1.74"/><path class="cls-12" d="M65.71,23.55a1.55,1.55,0,1,1-1.55,1.55,1.55,1.55,0,0,1,1.55-1.55m0-.38a1.93,1.93,0,1,0,1.93,1.93,1.94,1.94,0,0,0-1.93-1.93Z"/><circle class="cls-1" cx="71.4" cy="36.43" r="1.74"/><path class="cls-14" d="M71.4,34.87a1.56,1.56,0,1,1-1.55,1.55,1.56,1.56,0,0,1,1.55-1.55m0-.37a1.93,1.93,0,1,0,1.93,1.92A1.92,1.92,0,0,0,71.4,34.5Z"/><path class="cls-21" d="M61.68,30.73h1.87a2.29,2.29,0,0,0,2.29-2.28v-1.8"/><path class="cls-22" d="M66.27,53.58h8.55a2.28,2.28,0,0,1,2.28,2.28v1.85"/><path class="cls-22" d="M61.64,70.69H74.82a2.28,2.28,0,0,0,2.28-2.28V60.94"/><path class="cls-22" d="M61.64,70.69H74.82A2.28,2.28,0,0,1,77.1,73V91.35"/><path class="cls-23" d="M61.82,47.87h7.33a2.28,2.28,0,0,0,2.28-2.28V38.2"/><path class="cls-1" d="M60,32.47a1.74,1.74,0,1,1,1.74-1.74A1.74,1.74,0,0,1,60,32.47Z"/><path class="cls-9" d="M60,29.18a1.56,1.56,0,1,1-1.55,1.55A1.56,1.56,0,0,1,60,29.18m0-.37a1.93,1.93,0,1,0,1.93,1.92A1.92,1.92,0,0,0,60,28.81Z"/><path class="cls-1" d="M60,72.43a1.74,1.74,0,1,1,1.73-1.74A1.74,1.74,0,0,1,60,72.43Z"/><path class="cls-9" d="M60,69.14a1.55,1.55,0,1,1-1.56,1.55A1.55,1.55,0,0,1,60,69.14m0-.38a1.93,1.93,0,1,0,1.92,1.93A1.93,1.93,0,0,0,60,68.76Z"/><path class="cls-1" d="M60,89.48a1.74,1.74,0,1,1,1.73-1.74A1.74,1.74,0,0,1,60,89.48Z"/><path class="cls-9" d="M60,86.19a1.55,1.55,0,1,1-1.56,1.55A1.56,1.56,0,0,1,60,86.19m0-.37a1.93,1.93,0,1,0,1.92,1.92A1.92,1.92,0,0,0,60,85.82Z"/><path class="cls-21" d="M60.45,42.11h3a2.28,2.28,0,0,1,2.28,2.28v47"/><path class="cls-1" d="M65.69,66.72A1.74,1.74,0,1,1,67.43,65,1.74,1.74,0,0,1,65.69,66.72Z"/><path class="cls-12" d="M65.69,63.43A1.55,1.55,0,1,1,64.14,65a1.56,1.56,0,0,1,1.55-1.55m0-.38A1.93,1.93,0,1,0,67.61,65a1.93,1.93,0,0,0-1.92-1.93Z"/><path class="cls-1" d="M65.69,78.18a1.74,1.74,0,1,1,1.74-1.74A1.74,1.74,0,0,1,65.69,78.18Z"/><path class="cls-12" d="M65.69,74.89a1.55,1.55,0,1,1-1.55,1.55,1.56,1.56,0,0,1,1.55-1.55m0-.38a1.93,1.93,0,1,0,1.92,1.93,1.93,1.93,0,0,0-1.92-1.93Z"/><circle class="cls-9" cx="60.02" cy="42.17" r="0.96"/><path class="cls-1" d="M60,49.58a1.74,1.74,0,1,1,1.73-1.74A1.74,1.74,0,0,1,60,49.58Z"/><path class="cls-9" d="M60,46.29a1.55,1.55,0,1,1-1.56,1.55A1.55,1.55,0,0,1,60,46.29m0-.38a1.93,1.93,0,1,0,1.92,1.93A1.93,1.93,0,0,0,60,45.91Z"/><rect class="cls-24" x="151.71" y="4.28" width="4.45" height="4.45" rx="0.54" ry="0.54"/><rect class="cls-8" x="126.24" y="21.79" width="3.08" height="3.08" rx="0.22" ry="0.22"/><rect class="cls-25" x="149.84" y="91.52" width="8.29" height="2" rx="0.35" ry="0.35"/><rect class="cls-24" x="142.38" y="92.02" width="5.71" height="1" rx="0.5" ry="0.5"/><rect class="cls-4" y="10.31" width="30.88" height="6.44"/><rect class="cls-3" x="0.94" y="12.91" width="28.81" height="2.69"/><path class="cls-1" d="M77.1,61a1.74,1.74,0,1,1,1.74-1.74A1.74,1.74,0,0,1,77.1,61Z"/><path class="cls-13" d="M77.1,57.72a1.56,1.56,0,1,1-1.55,1.55,1.55,1.55,0,0,1,1.55-1.55m0-.37A1.93,1.93,0,1,0,79,59.27a1.92,1.92,0,0,0-1.93-1.92Z"/><rect class="cls-13" x="82.64" y="80.23" width="0.58" height="3.72"/><rect class="cls-17" x="77.18" y="80.23" width="5.47" height="3.72"/><path class="cls-1" d="M77.1,83.83a1.74,1.74,0,1,1,1.74-1.74A1.74,1.74,0,0,1,77.1,83.83Z"/><path class="cls-13" d="M77.1,80.54a1.55,1.55,0,1,1-1.55,1.55,1.55,1.55,0,0,1,1.55-1.55m0-.38A1.93,1.93,0,1,0,79,82.09a1.93,1.93,0,0,0-1.93-1.93Z"/><circle class="cls-12" cx="65.69" cy="53.59" r="0.96"/><path class="cls-26" d="M76.29.44a.91.91,0,1,0,.91.91A.91.91,0,0,0,76.29.44Z"/><rect class="cls-27" x="125.16" y="9.85" width="37.52" height="3.06"/><circle class="cls-28" cx="2.05" cy="1.51" r="0.54"/><circle class="cls-29" cx="4.27" cy="1.51" r="0.54"/><circle class="cls-30" cx="6.5" cy="1.51" r="0.54"/><rect class="cls-7" x="1.14" y="11.09" width="1.1" height="1.06" rx="0.2" ry="0.2"/><rect class="cls-5" x="27.9" y="13.78" width="1.1" height="1.06" rx="0.2" ry="0.2"/><rect class="cls-7" x="7.9" y="11.06" width="7.36" height="0.73" rx="0.37" ry="0.37"/><rect class="cls-8" x="140.24" y="11.01" width="7.36" height="0.73" rx="0.37" ry="0.37"/><rect class="cls-8" x="155.83" y="22.2" width="5.59" height="0.73" rx="0.37" ry="0.37"/><rect class="cls-8" x="131.05" y="23.84" width="7.36" height="0.73" rx="0.37" ry="0.37"/><rect class="cls-8" x="128.14" y="28.97" width="4.53" height="0.73" rx="0.37" ry="0.37"/><rect class="cls-8" x="128.14" y="31.8" width="7.36" height="0.73" rx="0.37" ry="0.37"/><rect class="cls-5" x="2.05" y="13.89" width="16.69" height="0.73" rx="0.37" ry="0.37"/><rect class="cls-7" x="27.16" y="11.06" width="2.58" height="0.73" rx="0.37" ry="0.37"/><rect class="cls-31" x="16.45" y="11.06" width="4.22" height="0.73" rx="0.37" ry="0.37"/><rect class="cls-4" y="17.14" width="30.88" height="3.36"/><rect class="cls-7" x="1.14" y="18.29" width="1.1" height="1.06" rx="0.2" ry="0.2"/><rect class="cls-7" x="2.96" y="18.45" width="7.36" height="0.73" rx="0.37" ry="0.37"/><rect class="cls-31" x="26.28" y="18.45" width="3.46" height="0.73" rx="0.37" ry="0.37"/><rect class="cls-4" y="33.98" width="30.88" height="3.36"/><rect class="cls-7" x="1.14" y="35.13" width="1.1" height="1.06" rx="0.2" ry="0.2"/><rect class="cls-7" x="2.96" y="35.29" width="6.02" height="0.73" rx="0.33" ry="0.33"/><rect class="cls-31" x="28.59" y="35.29" width="1.28" height="0.73" rx="0.37" ry="0.37"/><rect class="cls-4" y="48.99" width="30.88" height="3.36"/><rect class="cls-7" x="1.14" y="50.14" width="1.1" height="1.06" rx="0.2" ry="0.2"/><rect class="cls-7" x="2.96" y="50.3" width="10.03" height="0.73" rx="0.37" ry="0.37"/><rect class="cls-31" x="26.41" y="50.3" width="3.46" height="0.73" rx="0.37" ry="0.37"/><rect class="cls-4" y="73.27" width="30.88" height="3.36"/><rect class="cls-7" x="1.14" y="74.42" width="1.1" height="1.06" rx="0.2" ry="0.2"/><rect class="cls-7" x="2.96" y="74.58" width="7.36" height="0.73" rx="0.37" ry="0.37"/><rect class="cls-31" x="26.2" y="74.58" width="3.66" height="0.73" rx="0.37" ry="0.37"/><rect class="cls-4" y="76.69" width="30.88" height="3.36"/><rect class="cls-7" x="1.14" y="77.84" width="1.1" height="1.06" rx="0.2" ry="0.2"/><rect class="cls-7" x="2.96" y="78" width="7.36" height="0.73" rx="0.37" ry="0.37"/><rect class="cls-31" x="28.14" y="78" width="1.73" height="0.73" rx="0.37" ry="0.37"/><rect class="cls-27" x="126.24" y="14.11" width="35.35" height="6.12"/><rect class="cls-8" x="160.33" y="10.85" width="1.1" height="1.06" rx="0.2" ry="0.2"/><rect class="cls-32" x="126.24" y="28.8" width="1.1" height="1.06" rx="0.2" ry="0.2"/><rect class="cls-8" x="156.25" y="31.85" width="4.84" height="0.73" rx="0.37" ry="0.37"/><rect class="cls-8" x="127.92" y="35.66" width="6.69" height="0.73" rx="0.37" ry="0.37"/><rect class="cls-8" x="133.09" y="39.3" width="2.4" height="0.73" rx="0.37" ry="0.37"/><rect class="cls-8" x="136.18" y="43.43" width="10.2" height="0.73" rx="0.37" ry="0.37"/><rect class="cls-8" x="139.13" y="47.48" width="11.53" height="0.73" rx="0.37" ry="0.37"/><rect class="cls-8" x="142.01" y="51.54" width="10.54" height="0.73" rx="0.37" ry="0.37"/><rect class="cls-8" x="142.6" y="55.6" width="5.81" height="0.73" rx="0.37" ry="0.37"/><rect class="cls-8" x="142.51" y="59.74" width="6.75" height="0.73" rx="0.37" ry="0.37"/><rect class="cls-8" x="136.18" y="63.94" width="6.75" height="0.73" rx="0.37" ry="0.37"/><rect class="cls-8" x="139.13" y="67.85" width="6.75" height="0.73" rx="0.37" ry="0.37"/><rect class="cls-8" x="154.35" y="31.68" width="1.1" height="1.06" rx="0.2" ry="0.2"/><rect class="cls-33" x="129.94" y="38.77" width="1.44" height="1.44" rx="0.26" ry="0.26"/><rect class="cls-33" x="132.68" y="43.08" width="1.44" height="1.44" rx="0.26" ry="0.26"/><rect class="cls-33" x="135.68" y="47.13" width="1.44" height="1.44" rx="0.26" ry="0.26"/><rect class="cls-33" x="138.7" y="51.19" width="1.44" height="1.44" rx="0.26" ry="0.26"/><rect class="cls-33" x="132.85" y="63.59" width="1.44" height="1.44" rx="0.26" ry="0.26"/><rect class="cls-32" x="135.85" y="67.5" width="1.44" height="1.44" rx="0.26" ry="0.26"/><rect class="cls-32" x="139.94" y="55.24" width="1.44" height="1.44" rx="0.26" ry="0.26"/><rect class="cls-34" x="139.94" y="59.39" width="1.44" height="1.44" rx="0.26" ry="0.26"/><rect class="cls-8" x="128.21" y="16.79" width="8.67" height="0.75" rx="0.37" ry="0.37"/><rect class="cls-27" x="138.63" y="31.29" width="5.23" height="1.85"/><rect class="cls-35" x="143.92" y="31.29" width="5.23" height="1.85"/><rect class="cls-8" x="3.24" y="22.11" width="1.1" height="1.06" rx="0.2" ry="0.2"/><rect class="cls-8" x="5.43" y="22.38" width="3.33" height="0.53" rx="0.26" ry="0.26"/><rect class="cls-8" x="5.43" y="24.43" width="1.1" height="1.06" rx="0.2" ry="0.2"/><rect class="cls-8" x="7.63" y="24.7" width="10.4" height="0.53" rx="0.26" ry="0.26"/><rect class="cls-8" x="5.43" y="56.43" width="1.1" height="1.06" rx="0.2" ry="0.2"/><rect class="cls-8" x="5.43" y="26.75" width="1.1" height="1.06" rx="0.2" ry="0.2"/><rect class="cls-8" x="7.63" y="27.02" width="5.59" height="0.53" rx="0.26" ry="0.26"/><rect class="cls-8" x="1.14" y="39.2" width="1.1" height="1.06" rx="0.2" ry="0.2"/><rect class="cls-8" x="3.34" y="39.47" width="5.59" height="0.53" rx="0.26" ry="0.26"/><rect class="cls-8" x="1.14" y="41.52" width="1.1" height="1.06" rx="0.2" ry="0.2"/><rect class="cls-7" x="3.34" y="41.79" width="5.59" height="0.53" rx="0.26" ry="0.26"/><rect class="cls-8" x="3.34" y="41.79" width="10.4" height="0.53" rx="0.26" ry="0.26"/><rect class="cls-8" x="1.14" y="54.05" width="1.1" height="1.06" rx="0.2" ry="0.2"/><rect class="cls-8" x="3.34" y="54.32" width="10.4" height="0.53" rx="0.26" ry="0.26"/><rect class="cls-8" x="1.14" y="43.84" width="1.1" height="1.06" rx="0.2" ry="0.2"/><rect class="cls-8" x="3.34" y="44.11" width="5.59" height="0.53" rx="0.26" ry="0.26"/><rect class="cls-8" x="1.14" y="46.16" width="1.1" height="1.06" rx="0.2" ry="0.2"/><rect class="cls-8" x="3.34" y="46.43" width="5.59" height="0.53" rx="0.26" ry="0.26"/><rect class="cls-8" x="5.43" y="29.07" width="1.1" height="1.06" rx="0.2" ry="0.2"/><rect class="cls-8" x="7.63" y="29.34" width="8.46" height="0.53" rx="0.26" ry="0.26"/><rect class="cls-8" x="5.43" y="31.39" width="1.1" height="1.06" rx="0.2" ry="0.2"/><rect class="cls-8" x="7.63" y="31.66" width="9.48" height="0.53" rx="0.26" ry="0.26"/><rect class="cls-8" x="2.96" y="81.92" width="1.1" height="1.06" rx="0.2" ry="0.2"/><rect class="cls-8" x="5.16" y="86.83" width="10.4" height="0.53" rx="0.26" ry="0.26"/><rect class="cls-8" x="2.96" y="84.24" width="1.1" height="1.06" rx="0.2" ry="0.2"/><rect class="cls-8" x="5.16" y="84.51" width="5.59" height="0.53" rx="0.26" ry="0.26"/><rect class="cls-8" x="2.96" y="86.56" width="1.1" height="1.06" rx="0.2" ry="0.2"/><rect class="cls-8" x="5.16" y="82.19" width="8.46" height="0.53" rx="0.26" ry="0.26"/><rect class="cls-8" x="2.96" y="88.89" width="1.1" height="1.06" rx="0.2" ry="0.2"/><rect class="cls-8" x="5.16" y="89.15" width="9.48" height="0.53" rx="0.26" ry="0.26"/><rect class="cls-8" x="5.43" y="58.75" width="1.1" height="1.06" rx="0.2" ry="0.2"/><rect class="cls-8" x="5.43" y="61.07" width="1.1" height="1.06" rx="0.2" ry="0.2"/><rect class="cls-8" x="5.43" y="63.39" width="1.1" height="1.06" rx="0.2" ry="0.2"/><rect class="cls-8" x="5.43" y="65.77" width="1.1" height="1.06" rx="0.2" ry="0.2"/><rect class="cls-8" x="5.43" y="68.09" width="1.1" height="1.06" rx="0.2" ry="0.2"/><rect class="cls-8" x="5.43" y="70.45" width="1.1" height="1.06" rx="0.2" ry="0.2"/><rect class="cls-8" x="7.63" y="56.7" width="20.52" height="0.53" rx="0.26" ry="0.26"/><rect class="cls-8" x="7.63" y="59.02" width="18.91" height="0.53" rx="0.26" ry="0.26"/><rect class="cls-8" x="7.63" y="61.34" width="20.05" height="0.53" rx="0.26" ry="0.26"/><rect class="cls-8" x="7.63" y="68.36" width="18.54" height="0.53" rx="0.26" ry="0.26"/><rect class="cls-8" x="7.63" y="70.71" width="20.33" height="0.53" rx="0.26" ry="0.26"/><rect class="cls-8" x="7.63" y="63.72" width="18.08" height="0.53" rx="0.26" ry="0.26"/><rect class="cls-8" x="7.63" y="66.04" width="21.81" height="0.53" rx="0.26" ry="0.26"/><rect class="cls-36" x="48.07" y="13.08" width="1.16" height="1.13" rx="0.21" ry="0.21"/><rect class="cls-36" x="34.74" y="13.41" width="12.36" height="0.47" rx="0.24" ry="0.24"/><rect class="cls-7" x="42.69" y="24.48" width="1.16" height="1.13" rx="0.21" ry="0.21"/><rect class="cls-7" x="34.74" y="24.81" width="6.97" height="0.47" rx="0.24" ry="0.24"/><rect class="cls-7" x="46.42" y="35.86" width="1.16" height="1.13" rx="0.21" ry="0.21"/><rect class="cls-7" x="34.74" y="36.17" width="10.71" height="0.5" rx="0.25" ry="0.25"/><rect class="cls-7" x="34.74" y="58.98" width="5.37" height="0.47" rx="0.24" ry="0.24"/><rect class="cls-7" x="46.37" y="81.53" width="1.16" height="1.13" rx="0.21" ry="0.21"/><rect class="cls-7" x="34.74" y="81.86" width="10.66" height="0.47" rx="0.24" ry="0.24"/><rect class="cls-7" x="42.7" y="70.17" width="1.16" height="1.13" rx="0.21" ry="0.21"/><rect class="cls-7" x="34.74" y="70.5" width="6.99" height="0.47" rx="0.24" ry="0.24"/><rect class="cls-2" x="44.29" y="57.36" width="2.32" height="3.72" rx="0.25" ry="0.25"/><rect class="cls-7" x="41.08" y="58.65" width="1.16" height="1.13" rx="0.21" ry="0.21"/><rect class="cls-7" x="44.87" y="58.65" width="1.16" height="1.13" rx="0.21" ry="0.21"/></svg>